<svg t="1772174445800" class="icon" viewBox="0 0 1024 1024" version="1.1" xmlns="http://www.w3.org/2000/svg" p-id="122202" width="200" height="200"><path d="M513.467696 553.434179c-106.351488 0-275.700992-126.22183-275.700993-275.700993V79.481367c0-18.741345 15.128556-33.869901 33.869901-33.869901h485.242779c9.031974 0 17.838148 3.612789 24.160529 10.160971 6.322381 6.548181 9.935171 15.128556 9.709371 24.386328 0 0.903197-1.806395 100.029107-1.806394 197.574421 0.225799 149.479162-169.123705 275.700992-275.475193 275.700993zM305.506505 113.351268v164.381918c0 113.802867 137.737596 207.961191 207.961191 207.961191s207.961191-94.158324 207.96119-207.961191c0-62.998015 0.677398-126.673429 1.128997-164.381918H305.506505z" fill="#919191" p-id="122203"></path><path d="M848.328115 113.351268H175.897685c-18.741345 0-33.869901-15.128556-33.869901-33.869901s15.128556-33.869901 33.869901-33.869901h672.43043c18.741345 0 33.869901 15.128556 33.8699 33.869901s-15.128556 33.869901-33.8699 33.869901zM757.105182 993.29129h-485.468578c-18.741345 0-33.869901-15.128556-33.869901-33.869901v-198.251819c0-149.479162 169.349504-275.700992 275.700993-275.700992s275.700992 126.22183 275.700992 275.700992c0 97.771114 1.806395 196.671224 1.806395 197.574421 0.225799 9.031974-3.38699 17.838148-9.709372 24.386329-6.548181 6.548181-15.128556 10.16097-24.160529 10.16097z m-451.598677-67.739802H722.557883c-0.451599-37.70849-1.128997-101.383903-1.128997-164.381918 0-113.802867-137.737596-207.961191-207.96119-207.961191s-207.961191 94.158324-207.961191 207.961191v164.381918z" fill="#919191" p-id="122204"></path><path d="M848.328115 993.29129H175.897685c-18.741345 0-33.869901-15.128556-33.869901-33.869901s15.128556-33.869901 33.869901-33.869901h672.43043c18.741345 0 33.869901 15.128556 33.8699 33.869901s-15.128556 33.869901-33.8699 33.869901z" fill="#919191" p-id="122205"></path></svg>