<svg t="1772174612837" class="icon" viewBox="0 0 1082 1024" version="1.1" xmlns="http://www.w3.org/2000/svg" p-id="130543" width="200" height="200"><path d="M992.762223 585.38738c0 226.366903-183.575428 409.514417-409.514417 409.514417-137.360635 0-258.888425-67.610531-333.345591-171.593815 67.182616 47.926452 149.342248 76.168826 238.348516 76.168825 226.794818 0 410.798161-184.003343 410.798162-410.798161 0-86.866695-26.958629-167.742583-73.173423-234.069369 100.987881 75.312996 166.886753 195.129127 166.886753 330.778103z" fill="#F5F0EA" p-id="130544"></path><path d="M1001.748433 584.959465c0 230.646051-186.998746 417.644797-417.644797 417.644797s-417.644797-186.998746-417.644798-417.644797S353.457585 166.886753 584.103636 166.886753s417.644797 186.998746 417.644797 418.072712z m-417.644797-397.104889c-219.092353 0-396.676975 177.584622-396.676975 396.676974s177.584622 396.676975 396.676975 396.676975 396.676975-177.584622 396.676974-396.676975-177.584622-396.676975-396.676974-396.676974z" fill="#B98963" p-id="130545"></path><path d="M542.16799 126.234852h83.443376v62.903468h-83.443376z" fill="#B98963" p-id="130546"></path><path d="M773.66987 144.207271H394.537401v-119.81613h379.132469v119.81613z m-21.395737-103.983284H415.933138v88.578353h336.76891V40.223987z" fill="#B98963" p-id="130547"></path><path d="M471.989971 34.661095h11.553698v103.55537h-11.553698zM540.884246 34.661095h11.553698v103.55537h-11.553698zM615.769327 34.661095h11.553698v103.55537h-11.553698zM684.663602 34.661095h11.553698v103.55537H684.663602zM932.854158 370.574175l-103.55537-115.536983 68.038446-60.763895 103.555369 115.536983L932.854158 370.574175z m44.931049-61.619725l-82.159632-91.573756-42.791476 38.512327 82.159633 91.573757 42.791475-38.512328zM92.001672 662.412035v-155.333055h91.145842v155.333055H92.001672z m74.457166-16.26076v-122.811534H108.690347V646.151275h57.768491zM570.838278 175.445048h26.530715v67.182616h-26.530715zM570.838278 926.007522h26.530715v67.182616h-26.530715zM991.970581 571.668433v26.530715h-67.182616v-26.530715z" fill="#B98963" p-id="130548"></path><path d="M241.438061 571.638479v26.530714h-67.182616v-26.530714zM672.254074 584.959465c0 48.782282-39.368157 88.150439-88.150438 88.150439s-88.150439-39.368157-88.150439-88.150439 39.368157-88.150439 88.150439-88.150439 88.150439 39.368157 88.150438 88.150439z m-88.150438-71.033849c-38.940242 0-71.033849 31.665692-71.033849 71.033849s31.665692 71.033849 71.033849 71.033849 71.033849-31.665692 71.033848-71.033849-32.093606-71.033849-71.033848-71.033849z" fill="#B98963" p-id="130549"></path><path d="M575.117426 311.094024h17.544505v194.701212h-17.544505zM508.593799 615.071826l8.772252 15.190974-107.466511 62.047639-8.772252-15.190974z" fill="#B98963" p-id="130550"></path></svg>