<svg t="1772174074726" class="icon" viewBox="0 0 1024 1024" version="1.1" xmlns="http://www.w3.org/2000/svg" p-id="116857" width="200" height="200"><path d="M920.429714 251.172571h-91.574857V176.713143A103.716571 103.716571 0 0 0 725.211429 73.069714h-426.422858a103.716571 103.716571 0 0 0-103.643428 103.643429v74.459428H103.643429A103.716571 103.716571 0 0 0 0.073143 354.742857v545.28a103.716571 103.716571 0 0 0 103.570286 103.643429h816.786285a103.716571 103.716571 0 0 0 103.643429-103.643429V354.742857a103.716571 103.716571 0 0 0-103.643429-103.570286zM261.705143 176.713143a37.156571 37.156571 0 0 1 37.156571-37.083429h426.422857a37.156571 37.156571 0 0 1 37.156572 37.083429v74.459428H261.778286zM103.643429 317.659429h816.786285a37.156571 37.156571 0 0 1 37.083429 37.083428v127.414857h-89.6v-6.509714a80.457143 80.457143 0 0 0-80.457143-80.457143H698.660571a80.457143 80.457143 0 0 0-80.457142 80.457143v6.509714h-213.577143v-6.509714a80.457143 80.457143 0 0 0-80.457143-80.457143H235.373714a80.457143 80.457143 0 0 0-80.457143 80.457143v6.509714H65.316571V354.742857a37.156571 37.156571 0 0 1 38.326858-37.010286z m697.782857 157.988571v144.384a13.897143 13.897143 0 0 1-13.677715 13.677714H698.953143a13.824 13.824 0 0 1-13.677714-13.677714V475.648a13.824 13.824 0 0 1 13.677714-13.677714h88.795428a13.824 13.824 0 0 1 13.677715 13.750857z m-578.852572 40.813714v-1.024-39.789714a13.824 13.824 0 0 1 13.677715-13.677714h88.795428a13.824 13.824 0 0 1 13.677714 13.677714v144.384a13.824 13.824 0 0 1-13.677714 13.677714H236.251429a13.824 13.824 0 0 1-13.677715-13.677714z m697.782857 420.790857H103.643429a37.156571 37.156571 0 0 1-37.083429-37.156571v-351.085714h89.6v71.314285a80.457143 80.457143 0 0 0 80.457143 80.457143h88.795428a80.457143 80.457143 0 0 0 80.457143-80.457143v-71.314285h213.577143v71.314285a80.457143 80.457143 0 0 0 80.457143 80.457143h88.795429a80.457143 80.457143 0 0 0 80.457142-80.457143v-71.314285h89.6v351.085714a37.156571 37.156571 0 0 1-38.326857 37.156571z" fill="#595959" p-id="116858"></path></svg>